<svg xmlns="http://www.w3.org/2000/svg" viewBox="0 0 632.4 102.2"><style>.a{fill:#fff}.b{fill:#333}</style><circle cx="104.2" cy="51.7" r="48" fill="#228ae6"/><circle cx="84.3" cy="39.6" r="13.9" class="a"/><circle cx="91.7" cy="40.2" r="6.4" class="b"/><circle cx="124.7" cy="39.6" r="13.9" class="a"/><circle cx="132.1" cy="40.2" r="6.4" class="b"/><path fill="#fa7ca9" d="M155.2 68.7c1.9.6 4 1.1 6.1 1.5 1.8.4 3.8.8 6 1.1 2.2.3 4.5.4 6.8.4 4 0 6.1-1.5 6.1-4.5 0-1.1-.6-2.3-1.8-3.5-1.2-1.2-2.8-2.5-4.7-4-1.9-1.5-3.9-3.1-6.1-4.8-2.2-1.8-4.2-3.8-6.1-6.1-1.9-2.3-3.5-4.9-4.7-7.7-1.2-2.9-1.8-6.1-1.8-9.8 0-4.1.7-7.8 2.2-11 1.5-3.2 3.6-5.8 6.2-7.9 2.6-2.1 5.7-3.7 9.3-4.8 3.6-1.1 7.4-1.6 11.4-1.6 2.1 0 4.2.1 6.3.3 2.1.2 4 .4 5.7.6 1.9.3 3.8.5 5.7.8v24.7c-.7-.1-1.5-.2-2.4-.3-.7-.1-1.5-.2-2.4-.3-.9-.1-1.8-.1-2.8-.1-.5 0-1.2 0-2 .1-.8 0-1.5.2-2.2.3-.7.2-1.3.5-1.8.9s-.8 1.1-.8 1.8.6 1.6 1.8 2.6 2.6 2.3 4.4 3.7c1.7 1.4 3.6 3 5.7 4.9 2.1 1.8 4 4 5.7 6.3 1.7 2.4 3.2 5.1 4.4 8.1 1.2 3 1.8 6.3 1.8 10 0 3.9-.6 7.5-1.8 10.9-1.2 3.4-3.1 6.3-5.7 8.8-2.6 2.5-5.9 4.5-10 5.9-4 1.5-8.8 2.2-14.4 2.2-3.3 0-6.4-.2-9.3-.5-2.9-.3-5.4-.7-7.6-1.1-2.6-.4-4.9-1-7-1.6V68.7zm73.4-37.6h-16.2V8h61.5v23.1h-16.2V96h-29V31.1zM347 41.5c0 6.1-1.1 11.2-3.2 15.5-2.1 4.3-5 7.7-8.6 10.4-3.7 2.6-7.9 4.6-12.8 5.8-4.9 1.2-10.1 1.8-15.8 1.8v21h-28.1V8h28.1c5.6 0 10.9.6 15.8 1.8 4.9 1.2 9.2 3.2 12.8 5.8 3.7 2.6 6.5 6.1 8.6 10.4 2.2 4.3 3.2 9.4 3.2 15.5zm-40.4 9.8h1.2c3.7 0 6.4-.9 8-2.6 1.6-1.7 2.4-4.1 2.4-7.2 0-3.1-.8-5.5-2.4-7.2-1.6-1.7-4.3-2.6-8-2.6h-1.2v19.6zm47-43.3h51.9v23.1h-23.8v9.8h23.4v21.9h-23.4V73h24.7v23h-52.8V8zM426 31.1h-16.2V8h61.5v23.1H455V96h-29V31.1zM475.2 74h28.2v22h-28.2V74zm32.2.9h9.6c2.8 0 4.7-.5 5.7-1.6s1.5-2.6 1.5-4.5V8h28.9v65.7c0 8.2-1.9 13.9-5.6 17.3-3.7 3.3-9.7 5-17.9 5h-22.2V74.9zm123.2-33.4c0 6.1-1.1 11.2-3.2 15.5-2.1 4.3-5 7.7-8.6 10.4-3.7 2.6-7.9 4.6-12.8 5.8-4.9 1.2-10.1 1.8-15.8 1.8v21h-28.1V8h28.1c5.6 0 10.9.6 15.8 1.8 4.9 1.2 9.2 3.2 12.8 5.8 3.7 2.6 6.5 6.1 8.6 10.4 2.1 4.3 3.2 9.4 3.2 15.5zm-40.4 9.8h1.2c3.7 0 6.4-.9 8-2.6 1.6-1.7 2.4-4.1 2.4-7.2 0-3.1-.8-5.5-2.4-7.2-1.6-1.7-4.3-2.6-8-2.6h-1.2v19.6zM1.6 8h29.3v64.9h24.3V96H1.6V8z"/></svg>