<?xml version="1.0" standalone="no"?>
<!DOCTYPE svg PUBLIC "-//W3C//DTD SVG 20010904//EN"
 "http://www.w3.org/TR/2001/REC-SVG-20010904/DTD/svg10.dtd">
<svg version="1.0" xmlns="http://www.w3.org/2000/svg"
 width="1000.000000pt" height="1000.000000pt" viewBox="0 0 1000.000000 1000.000000"
 preserveAspectRatio="xMidYMid meet">
<metadata>
Created by potrace 1.14, written by Peter Selinger 2001-2017
</metadata>
<g transform="translate(0.000000,1000.000000) scale(0.100000,-0.100000)"
fill="#000000" stroke="none">
<path d="M0 5000 l0 -5000 5000 0 5000 0 0 5000 0 5000 -5000 0 -5000 0 0
-5000z m3215 2682 c448 -97 812 -380 1010 -785 92 -188 137 -358 149 -567 4
-73 3 -79 -5 -40 -40 175 -90 270 -199 381 -84 85 -192 146 -310 175 -98 25
-293 15 -382 -18 -141 -53 -256 -143 -334 -260 -172 -258 -146 -602 62 -827
338 -365 930 -255 1120 207 31 74 30 50 -1 -66 -124 -464 -483 -846 -938 -997
-177 -59 -250 -70 -462 -70 -212 0 -284 11 -464 71 -433 144 -779 496 -920
937 -48 152 -65 261 -65 437 0 400 141 738 423 1020 246 246 495 368 866 424
73 11 362 -3 450 -22z m4220 -2 c256 -55 496 -181 689 -361 258 -242 419 -565
456 -919 14 -141 11 -166 -11 -71 -57 256 -249 455 -499 517 -98 25 -293 15
-382 -18 -101 -38 -174 -85 -254 -164 -119 -118 -193 -296 -194 -467 0 -259
141 -487 375 -603 352 -175 765 -17 921 353 l25 58 -7 -45 c-10 -68 -70 -245
-114 -337 -110 -227 -313 -452 -536 -595 -125 -80 -324 -159 -494 -195 -120
-26 -430 -26 -550 0 -600 128 -1046 582 -1156 1178 -27 145 -23 390 9 539 63
294 187 521 401 736 239 238 494 362 861 418 77 11 363 -3 460 -24z"/>
</g>
</svg>
